<svg width="157" height="171" viewBox="0 0 157 171" fill="none" xmlns="http://www.w3.org/2000/svg">
<g clip-path="url(#clip0_207_191)">
<mask id="mask0_207_191" style="mask-type:alpha" maskUnits="userSpaceOnUse" x="0" y="15" width="157" height="156">
<path d="M78.7171 171C121.872 171 156.855 136.112 156.855 93.0759C156.855 50.0396 121.872 15.1519 78.7171 15.1519C35.5625 15.1519 0.578804 50.0396 0.578804 93.0759C0.578804 136.112 35.5625 171 78.7171 171Z" fill="white"/>
</mask>
<g mask="url(#mask0_207_191)">
<path d="M78.7171 171C121.872 171 156.855 136.112 156.855 93.0759C156.855 50.0396 121.872 15.1519 78.7171 15.1519C35.5625 15.1519 0.578804 50.0396 0.578804 93.0759C0.578804 136.112 35.5625 171 78.7171 171Z" fill="#EAF6F6"/>
<path d="M157.178 15.1519H0.578804V171H157.178V15.1519Z" fill="#EAF6F6"/>
</g>
<mask id="mask1_207_191" style="mask-type:alpha" maskUnits="userSpaceOnUse" x="-8" y="-11" width="173" height="182">
<path d="M-7.23502 93.076V-10.8228H164.669V93.076H156.855C156.855 136.112 121.872 171 78.717 171C35.5625 171 0.578801 136.112 0.578801 93.076H-7.23502Z" fill="white"/>
</mask>
<g mask="url(#mask1_207_191)">
<mask id="mask2_207_191" style="mask-type:alpha" maskUnits="userSpaceOnUse" x="13" y="12" width="131" height="160">
<path d="M78.7171 12.5547C98.8559 12.5547 115.182 28.8357 115.182 48.9192L115.182 52.9233C118.877 53.5419 121.693 56.747 121.693 60.6079V69.699C121.693 73.6292 118.775 76.8799 114.982 77.4144C113.637 90.2753 105.569 101.143 94.3453 106.46L94.3447 118.402H96.9493C122.842 118.402 143.832 139.334 143.832 165.156V171H13.6018V165.156C13.6018 139.334 34.5921 118.402 60.4848 118.402H63.0894L63.0895 106.46C51.8653 101.143 43.7973 90.2756 42.4512 77.4144C38.6587 76.8799 35.741 73.6292 35.741 69.699V60.6079C35.741 56.7467 38.557 53.5415 42.2526 52.9232L42.2525 48.9192C42.2525 28.8357 58.5783 12.5547 78.7171 12.5547Z" fill="white"/>
</mask>
<g mask="url(#mask2_207_191)">
<path d="M78.7171 12.5547C98.8559 12.5547 115.182 28.8357 115.182 48.9192L115.182 52.9233C118.877 53.5419 121.693 56.747 121.693 60.6079V69.699C121.693 73.6292 118.775 76.8799 114.982 77.4144C113.637 90.2753 105.569 101.143 94.3453 106.46L94.3447 118.402H96.9493C122.842 118.402 143.832 139.334 143.832 165.156V171H13.6018V165.156C13.6018 139.334 34.5921 118.402 60.4848 118.402H63.0894L63.0895 106.46C51.8653 101.143 43.7973 90.2756 42.4512 77.4144C38.6587 76.8799 35.741 73.6292 35.741 69.699V60.6079C35.741 56.7467 38.557 53.5415 42.2526 52.9232L42.2525 48.9192C42.2525 28.8357 58.5783 12.5547 78.7171 12.5547Z" fill="#D0C6AC"/>
<path d="M165.236 12.5547H-7.23502V171.545H165.236V12.5547Z" fill="#FFDBB4"/>
<path fill-rule="evenodd" clip-rule="evenodd" d="M42.2525 73.5952C42.2525 93.6788 58.5783 109.96 78.7171 109.96C98.8558 109.96 115.182 93.6788 115.182 73.5952V78.7902C115.182 98.8737 98.8558 115.155 78.7171 115.155C58.5783 115.155 42.2525 98.8737 42.2525 78.7902V73.5952Z" fill="black" fill-opacity="0.1"/>
</g>
<mask id="mask3_207_191" style="mask-type:alpha" maskUnits="userSpaceOnUse" x="13" y="108" width="131" height="63">
<path d="M94.3457 108.058C106.131 109.373 115.182 112.988 115.182 122.348L115.177 122.066C132.015 129.159 143.832 145.781 143.832 165.156V171H13.6018V165.156C13.6018 145.781 25.4186 129.159 42.2567 122.066C42.4353 112.915 51.4218 109.36 63.0892 108.058L63.0894 120.35C63.0894 128.957 70.0861 135.934 78.7171 135.934C87.348 135.934 94.3447 128.957 94.3447 120.35L94.3457 108.058Z" fill="white"/>
</mask>
<g mask="url(#mask3_207_191)">
<path d="M94.3457 108.058C106.131 109.373 115.182 112.988 115.182 122.348L115.177 122.066C132.015 129.159 143.832 145.781 143.832 165.156V171H13.6018V165.156C13.6018 145.781 25.4186 129.159 42.2567 122.066C42.4353 112.915 51.4218 109.36 63.0892 108.058L63.0894 120.35C63.0894 128.957 70.0861 135.934 78.7171 135.934C87.348 135.934 94.3447 128.957 94.3447 120.35L94.3457 108.058Z" fill="#B7C1DB"/>
<path d="M165.314 99.5698H-7.23502V171H165.314V99.5698Z" fill="#7510F7"/>
<path fill-rule="evenodd" clip-rule="evenodd" d="M59.1823 139.661L59.1825 171H54.6244L54.6237 137.33C56.0588 138.181 57.5847 138.961 59.1823 139.661ZM102.811 137.33L102.81 163.533C102.81 164.788 101.789 165.805 100.531 165.805C99.272 165.805 98.2516 164.788 98.2516 163.533L98.2525 139.661C99.85 138.961 101.376 138.181 102.811 137.33Z" fill="#F4F4F4"/>
<path fill-rule="evenodd" clip-rule="evenodd" d="M105.438 107.832C115.24 109.681 122.019 113.364 122.019 120.549C122.019 133.35 100.506 143.727 78.7171 143.727C56.928 143.727 35.4154 133.35 35.4154 120.549C35.4154 113.364 42.1943 109.681 51.9957 107.832C46.0792 110.007 42.2525 113.664 42.2525 119.75C42.2525 132.992 60.3684 143.727 78.7171 143.727C97.0657 143.727 115.182 132.992 115.182 119.75C115.182 113.791 111.513 110.161 105.806 107.97L105.438 107.832Z" fill="black" fill-opacity="0.16"/>
</g>
<mask id="mask4_207_191" style="mask-type:alpha" maskUnits="userSpaceOnUse" x="66" y="84" width="26" height="13">
<path d="M66.4219 86.0162C67.1107 92.1798 72.3527 96.9723 78.7171 96.9723C85.1011 96.9723 90.3558 92.1501 91.0185 85.959C91.0718 85.4608 90.5138 84.6343 89.8145 84.6343C80.1162 84.6343 72.686 84.6343 67.704 84.6343C67.0006 84.6343 66.353 85.3995 66.4219 86.0162Z" fill="white"/>
</mask>
<g mask="url(#mask4_207_191)">
<path d="M66.4219 86.0162C67.1107 92.1798 72.3527 96.9723 78.7171 96.9723C85.1011 96.9723 90.3558 92.1501 91.0185 85.959C91.0718 85.4608 90.5138 84.6343 89.8145 84.6343C80.1162 84.6343 72.686 84.6343 67.704 84.6343C67.0006 84.6343 66.353 85.3995 66.4219 86.0162Z" fill="black" fill-opacity="0.7"/>
<path fill-rule="evenodd" clip-rule="evenodd" d="M72.2055 77.4912H85.8797C87.6778 77.4912 89.1355 78.9449 89.1355 80.738V84.6342C89.1355 86.4274 87.6778 87.8811 85.8797 87.8811H72.2055C70.4074 87.8811 68.9498 86.4274 68.9498 84.6342V80.738C68.9498 78.9449 70.4074 77.4912 72.2055 77.4912Z" fill="white"/>
<path d="M75.4613 106.063C79.4171 106.063 82.624 102.865 82.624 98.9204C82.624 94.9754 79.4171 91.7773 75.4613 91.7773C71.5055 91.7773 68.2986 94.9754 68.2986 98.9204C68.2986 102.865 71.5055 106.063 75.4613 106.063Z" fill="#FF4F6D"/>
<path d="M81.9728 106.063C85.9287 106.063 89.1355 102.865 89.1355 98.9204C89.1355 94.9754 85.9287 91.7773 81.9728 91.7773C78.017 91.7773 74.8102 94.9754 74.8102 98.9204C74.8102 102.865 78.017 106.063 81.9728 106.063Z" fill="#FF4F6D"/>
</g>
<path fill-rule="evenodd" clip-rule="evenodd" d="M70.9032 73.5947C70.9032 76.4638 74.4016 78.7897 78.7171 78.7897C83.0325 78.7897 86.5309 76.4638 86.5309 73.5947" fill="black" fill-opacity="0.16"/>
<path fill-rule="evenodd" clip-rule="evenodd" d="M52.7753 62.1969C53.9776 59.7301 56.685 58.0103 59.8321 58.0103C62.9681 58.0103 65.6674 59.718 66.8761 62.1708C67.2351 62.8995 66.7242 63.4958 66.2088 63.0539C64.6128 61.6855 62.3463 60.831 59.8321 60.831C57.3965 60.831 55.1934 61.6329 53.607 62.927C53.027 63.4002 52.4236 62.9184 52.7753 62.1969Z" fill="black" fill-opacity="0.6"/>
<path fill-rule="evenodd" clip-rule="evenodd" d="M90.5421 62.1969C91.7444 59.7301 94.4518 58.0103 97.5989 58.0103C100.735 58.0103 103.434 59.718 104.643 62.1708C105.002 62.8995 104.491 63.4958 103.976 63.0539C102.38 61.6855 100.113 60.831 97.5989 60.831C95.1633 60.831 92.9602 61.6329 91.3738 62.927C90.7938 63.4002 90.1904 62.9184 90.5421 62.1969Z" fill="black" fill-opacity="0.6"/>
<path fill-rule="evenodd" clip-rule="evenodd" d="M59.5389 46.4178C55.7577 46.592 49.6446 49.3321 49.8021 53.1347C49.8073 53.2592 49.9906 53.3138 50.0802 53.2181C51.874 51.2964 64.6109 49.3546 69.097 50.3836C69.5076 50.4779 69.8195 50.074 69.5595 49.7822C67.3312 47.2833 62.9265 46.2584 59.5389 46.4178Z" fill="black" fill-opacity="0.6"/>
<path fill-rule="evenodd" clip-rule="evenodd" d="M98.5463 46.4178C102.328 46.592 108.441 49.3321 108.283 53.1347C108.278 53.2592 108.095 53.3138 108.005 53.2181C106.211 51.2964 93.4744 49.3546 88.9882 50.3836C88.5777 50.4779 88.2657 50.074 88.5258 49.7822C90.7541 47.2833 95.1587 46.2584 98.5463 46.4178Z" fill="black" fill-opacity="0.6"/>
<mask id="mask5_207_191" style="mask-type:alpha" maskUnits="userSpaceOnUse" x="-8" y="-11" width="173" height="182">
<path d="M164.669 -10.8228H-7.23502V171H164.669V-10.8228Z" fill="white"/>
</mask>
<g mask="url(#mask5_207_191)">
<mask id="mask6_207_191" style="mask-type:alpha" maskUnits="userSpaceOnUse" x="40" y="0" width="77" height="54">
<path d="M109.347 15.1001C107.549 13.2688 105.463 11.7145 103.434 10.1559C102.986 9.81229 102.531 9.47699 102.093 9.12033C101.994 9.03928 100.974 8.31115 100.852 8.04317C100.558 7.39848 100.729 7.90046 100.769 7.13115C100.82 6.15835 102.809 3.41075 101.325 2.78066C100.672 2.50353 99.5074 3.24103 98.881 3.48461C97.6559 3.96132 96.4158 4.36787 95.1493 4.71843C95.7561 3.51272 96.913 1.09912 94.7385 1.74511C93.0445 2.2484 91.4659 3.54235 89.7636 4.15108C90.3269 3.23035 92.5793 0.377309 90.544 0.217826C89.9106 0.168151 88.0677 1.35294 87.3857 1.60568C85.3433 2.36278 83.257 2.85213 81.1126 3.23754C73.821 4.54805 65.2943 4.1744 58.5481 7.48498C53.3471 10.0371 48.2115 13.9972 45.207 19.0399C42.3112 23.9004 41.2281 29.2198 40.622 34.7895C40.1772 38.877 40.1411 43.1022 40.3491 47.2045C40.417 48.5486 40.5686 54.7442 42.5266 52.8679C43.5021 51.933 43.4949 48.1579 43.7406 46.8801C44.2295 44.3377 44.7002 41.784 45.5154 39.323C46.952 34.986 48.6466 32.9637 52.2255 29.9766C54.5221 28.06 56.1349 25.4695 58.3327 23.5359C59.3199 22.6674 58.5666 22.7579 60.1539 22.8718C61.2202 22.9483 62.2913 22.9775 63.3598 23.0054C65.8316 23.0694 68.3073 23.0531 70.7797 23.0618C75.7589 23.0796 80.7149 23.1498 85.6893 22.8899C87.9 22.7744 90.1167 22.7119 92.3214 22.508C93.5531 22.394 95.7384 21.6068 96.7523 22.2084C97.6801 22.7587 98.6436 24.5557 99.3098 25.2917C100.884 27.031 102.761 28.3594 104.601 29.7856C108.439 32.7593 110.377 33.8968 111.543 38.5441C112.704 43.1741 112.378 47.4695 113.816 52.0259C114.069 52.827 114.737 54.2079 115.562 52.9702C115.715 52.7403 115.675 51.4767 115.675 50.7496C115.675 47.8146 116.421 45.6125 116.411 42.6584C116.375 33.6763 116.084 21.9642 109.347 15.1001Z" fill="white"/>
</mask>
<g mask="url(#mask6_207_191)">
<path d="M109.347 15.1001C107.549 13.2688 105.463 11.7145 103.434 10.1559C102.986 9.81229 102.531 9.47699 102.093 9.12033C101.994 9.03928 100.974 8.31115 100.852 8.04317C100.558 7.39848 100.729 7.90046 100.769 7.13115C100.82 6.15835 102.809 3.41075 101.325 2.78066C100.672 2.50353 99.5074 3.24103 98.881 3.48461C97.6559 3.96132 96.4158 4.36787 95.1493 4.71843C95.7561 3.51272 96.913 1.09912 94.7385 1.74511C93.0445 2.2484 91.4659 3.54235 89.7636 4.15108C90.3269 3.23035 92.5793 0.377309 90.544 0.217826C89.9106 0.168151 88.0677 1.35294 87.3857 1.60568C85.3433 2.36278 83.257 2.85213 81.1126 3.23754C73.821 4.54805 65.2943 4.1744 58.5481 7.48498C53.3471 10.0371 48.2115 13.9972 45.207 19.0399C42.3112 23.9004 41.2281 29.2198 40.622 34.7895C40.1772 38.877 40.1411 43.1022 40.3491 47.2045C40.417 48.5486 40.5686 54.7442 42.5266 52.8679C43.5021 51.933 43.4949 48.1579 43.7406 46.8801C44.2295 44.3377 44.7002 41.784 45.5154 39.323C46.952 34.986 48.6466 32.9637 52.2255 29.9766C54.5221 28.06 56.1349 25.4695 58.3327 23.5359C59.3199 22.6674 58.5666 22.7579 60.1539 22.8718C61.2202 22.9483 62.2913 22.9775 63.3598 23.0054C65.8316 23.0694 68.3073 23.0531 70.7797 23.0618C75.7589 23.0796 80.7149 23.1498 85.6893 22.8899C87.9 22.7744 90.1167 22.7119 92.3214 22.508C93.5531 22.394 95.7384 21.6068 96.7523 22.2084C97.6801 22.7587 98.6436 24.5557 99.3098 25.2917C100.884 27.031 102.761 28.3594 104.601 29.7856C108.439 32.7593 110.377 33.8968 111.543 38.5441C112.704 43.1741 112.378 47.4695 113.816 52.0259C114.069 52.827 114.737 54.2079 115.562 52.9702C115.715 52.7403 115.675 51.4767 115.675 50.7496C115.675 47.8146 116.421 45.6125 116.411 42.6584C116.375 33.6763 116.084 21.9642 109.347 15.1001Z" fill="#1F3140"/>
<path d="M165.687 -10.8228H-7.30737V171.293H165.687V-10.8228Z" fill="#4A312C"/>
</g>
</g>
</g>
</g>
<defs>
<clipPath id="clip0_207_191">
<rect width="157" height="171" fill="white"/>
</clipPath>
</defs>
</svg>
