<svg width="179" height="226" viewBox="0 0 179 226" fill="none" xmlns="http://www.w3.org/2000/svg">
<path d="M178.219 73.2305C177.863 77.3945 177 81.3047 175.629 84.9609C174.258 88.6172 172.506 92.0449 170.373 95.2441C168.291 98.3926 165.93 101.338 163.289 104.08C160.648 106.771 157.881 109.26 154.986 111.545C160.217 118.197 164.711 125.104 168.469 132.264C172.227 139.373 175.477 146.787 178.219 154.506L152.016 160.523C151.305 153.617 149.984 146.939 148.055 140.49C146.125 133.99 143.408 127.744 139.904 121.752C138.076 122.768 136.273 123.682 134.496 124.494C132.77 125.256 131.17 125.992 129.697 126.703V133.559C129.697 137.672 129.748 141.709 129.85 145.67C130.002 149.631 130.078 153.668 130.078 157.781L108.064 160.523C108.064 141.684 107.785 122.818 107.227 103.928C106.668 85.0371 105.754 66.1211 104.484 47.1797H132.82C132.059 58.3516 131.424 69.498 130.916 80.6191C130.408 91.6895 130.078 102.836 129.926 114.059C132.465 112.027 134.725 109.869 136.705 107.584C138.686 105.299 140.438 103.014 141.961 100.729C143.484 98.4434 144.779 96.1836 145.846 93.9492C146.912 91.6641 147.826 89.5059 148.588 87.4746C150.314 82.7012 151.457 77.9531 152.016 73.2305H178.219Z" fill="url(#paint0_linear_194_2)"/>
<path d="M87.0312 118.25C87.0312 124.865 86.6406 131.583 85.8594 138.406C85.0781 145.229 83.8802 152.078 82.2656 158.953H55.0781C55.7031 151.609 56.1979 144.318 56.5625 137.078C56.9271 129.839 57.1094 122.547 57.1094 115.203C57.1094 112.703 57.1094 110.229 57.1094 107.781C57.1094 105.333 57.0573 102.911 56.9531 100.516C54.6094 100.255 52.2917 100.099 50 100.047C47.7604 99.9427 45.4427 99.8906 43.0469 99.8906C41.6927 99.8906 40.3125 99.9167 38.9062 99.9688C37.5521 100.021 36.1458 100.047 34.6875 100.047C34.5312 103.745 34.4271 107.208 34.375 110.438C34.375 113.615 34.375 116.818 34.375 120.047C34.375 122.703 34.401 125.411 34.4531 128.172C34.5052 130.88 34.5833 133.797 34.6875 136.922C34.8438 140.047 35.026 143.432 35.2344 147.078C35.4427 150.672 35.7031 154.63 36.0156 158.953H9.76562C9.76562 152.703 9.73958 147.182 9.6875 142.391C9.63542 137.599 9.55729 133.198 9.45312 129.188C9.34896 125.125 9.19271 121.271 8.98438 117.625C8.82812 113.927 8.61979 110.073 8.35938 106.062C8.09896 102 7.8125 97.599 7.5 92.8594C7.1875 88.0677 6.82292 82.5729 6.40625 76.375L36.0156 74.5781L35.3906 86.1406C37.9948 84.8906 40.5469 83.9271 43.0469 83.25C45.5469 82.5729 47.7865 82.0781 49.7656 81.7656C52.0573 81.401 54.2448 81.1927 56.3281 81.1406C60.3385 81.1406 63.9062 81.7135 67.0312 82.8594C70.1562 83.9531 72.8906 85.4635 75.2344 87.3906C78.2552 84.7865 81.4323 82.8073 84.7656 81.4531C88.151 80.0469 91.276 79.0052 94.1406 78.3281C97.474 77.5469 100.755 77.1042 103.984 77C107.839 77 111.25 77.5208 114.219 78.5625C117.24 79.6042 119.896 81.0625 122.188 82.9375C124.479 84.7604 126.406 86.9479 127.969 89.5C129.583 92 130.885 94.7083 131.875 97.625C132.865 100.49 133.568 103.51 133.984 106.688C134.453 109.865 134.688 113.042 134.688 116.219C134.688 123.146 134.297 130.177 133.516 137.312C132.786 144.448 131.589 151.661 129.922 158.953H102.734C103.359 151.193 103.854 143.51 104.219 135.906C104.583 128.25 104.766 120.568 104.766 112.859C104.766 110.255 104.766 107.677 104.766 105.125C104.766 102.521 104.714 99.9167 104.609 97.3125C102.266 97.0521 99.9479 96.8958 97.6562 96.8438C95.3646 96.7396 92.9948 96.6875 90.5469 96.6875C89.1927 96.6875 87.8646 96.7135 86.5625 96.7656C85.2604 96.8177 83.9323 96.8438 82.5781 96.8438C84.1927 100.073 85.3385 103.536 86.0156 107.234C86.6927 110.88 87.0312 114.552 87.0312 118.25Z" fill="url(#paint1_linear_194_2)"/>
<defs>
<linearGradient id="paint0_linear_194_2" x1="173.5" y1="124.5" x2="109.241" y2="121.902" gradientUnits="userSpaceOnUse">
<stop stop-color="#277BC0"/>
<stop offset="0.651042" stop-color="#FFB200"/>
<stop offset="0.651142" stop-color="#277BC0" stop-opacity="0"/>
</linearGradient>
<linearGradient id="paint1_linear_194_2" x1="35.5" y1="0" x2="35.5" y2="226" gradientUnits="userSpaceOnUse">
<stop stop-color="#FFB200"/>
<stop offset="0.294792" stop-color="#FEB201"/>
<stop offset="0.727083" stop-color="#2A7CBE"/>
<stop offset="1" stop-color="#277BC0"/>
</linearGradient>
</defs>
</svg>
