<svg width="71" height="45" viewBox="0 0 71 45" fill="none" xmlns="http://www.w3.org/2000/svg">
<path d="M35.2344 14.5059C35.166 15.3066 35 16.0586 34.7363 16.7617C34.4727 17.4648 34.1357 18.124 33.7256 18.7393C33.3252 19.3447 32.8711 19.9111 32.3633 20.4385C31.8555 20.9561 31.3232 21.4346 30.7666 21.874C31.7725 23.1533 32.6367 24.4814 33.3594 25.8584C34.082 27.2256 34.707 28.6514 35.2344 30.1357L30.1953 31.293C30.0586 29.9648 29.8047 28.6807 29.4336 27.4404C29.0625 26.1904 28.54 24.9893 27.8662 23.8369C27.5146 24.0322 27.168 24.208 26.8262 24.3643C26.4941 24.5107 26.1865 24.6523 25.9033 24.7891V26.1074C25.9033 26.8984 25.9131 27.6748 25.9326 28.4365C25.9619 29.1982 25.9766 29.9746 25.9766 30.7656L21.7432 31.293C21.7432 27.6699 21.6895 24.042 21.582 20.4092C21.4746 16.7764 21.2988 13.1387 21.0547 9.49609H26.5039C26.3574 11.6445 26.2354 13.7881 26.1377 15.9268C26.04 18.0557 25.9766 20.1992 25.9473 22.3574C26.4355 21.9668 26.8701 21.5518 27.251 21.1123C27.6318 20.6729 27.9688 20.2334 28.2617 19.7939C28.5547 19.3545 28.8037 18.9199 29.0088 18.4902C29.2139 18.0508 29.3896 17.6357 29.5361 17.2451C29.8682 16.3271 30.0879 15.4141 30.1953 14.5059H35.2344Z" fill="url(#paint0_linear_167_3)"/>
<path d="M17.4062 23.25C17.4062 24.5729 17.3281 25.9167 17.1719 27.2812C17.0156 28.6458 16.776 30.0156 16.4531 31.3906H11.0156C11.1406 29.9219 11.2396 28.4635 11.3125 27.0156C11.3854 25.5677 11.4219 24.1094 11.4219 22.6406C11.4219 22.1406 11.4219 21.6458 11.4219 21.1562C11.4219 20.6667 11.4115 20.1823 11.3906 19.7031C10.9219 19.651 10.4583 19.6198 10 19.6094C9.55208 19.5885 9.08854 19.5781 8.60938 19.5781C8.33854 19.5781 8.0625 19.5833 7.78125 19.5938C7.51042 19.6042 7.22917 19.6094 6.9375 19.6094C6.90625 20.349 6.88542 21.0417 6.875 21.6875C6.875 22.3229 6.875 22.9635 6.875 23.6094C6.875 24.1406 6.88021 24.6823 6.89062 25.2344C6.90104 25.776 6.91667 26.3594 6.9375 26.9844C6.96875 27.6094 7.00521 28.2865 7.04688 29.0156C7.08854 29.7344 7.14062 30.526 7.20312 31.3906H1.95312C1.95312 30.1406 1.94792 29.0365 1.9375 28.0781C1.92708 27.1198 1.91146 26.2396 1.89062 25.4375C1.86979 24.625 1.83854 23.8542 1.79688 23.125C1.76562 22.3854 1.72396 21.6146 1.67188 20.8125C1.61979 20 1.5625 19.1198 1.5 18.1719C1.4375 17.2135 1.36458 16.1146 1.28125 14.875L7.20312 14.5156L7.07812 16.8281C7.59896 16.5781 8.10938 16.3854 8.60938 16.25C9.10938 16.1146 9.55729 16.0156 9.95312 15.9531C10.4115 15.8802 10.849 15.8385 11.2656 15.8281C12.0677 15.8281 12.7812 15.9427 13.4062 16.1719C14.0312 16.3906 14.5781 16.6927 15.0469 17.0781C15.651 16.5573 16.2865 16.1615 16.9531 15.8906C17.6302 15.6094 18.2552 15.401 18.8281 15.2656C19.4948 15.1094 20.151 15.0208 20.7969 15C21.5677 15 22.25 15.1042 22.8438 15.3125C23.4479 15.5208 23.9792 15.8125 24.4375 16.1875C24.8958 16.5521 25.2812 16.9896 25.5938 17.5C25.9167 18 26.1771 18.5417 26.375 19.125C26.5729 19.6979 26.7135 20.3021 26.7969 20.9375C26.8906 21.5729 26.9375 22.2083 26.9375 22.8438C26.9375 24.2292 26.8594 25.6354 26.7031 27.0625C26.5573 28.4896 26.3177 29.9323 25.9844 31.3906H20.5469C20.6719 29.8385 20.7708 28.3021 20.8438 26.7812C20.9167 25.25 20.9531 23.7135 20.9531 22.1719C20.9531 21.651 20.9531 21.1354 20.9531 20.625C20.9531 20.1042 20.9427 19.5833 20.9219 19.0625C20.4531 19.0104 19.9896 18.9792 19.5312 18.9688C19.0729 18.9479 18.599 18.9375 18.1094 18.9375C17.8385 18.9375 17.5729 18.9427 17.3125 18.9531C17.0521 18.9635 16.7865 18.9688 16.5156 18.9688C16.8385 19.6146 17.0677 20.3073 17.2031 21.0469C17.3385 21.776 17.4062 22.5104 17.4062 23.25Z" fill="url(#paint1_linear_167_3)"/>
<defs>
<linearGradient id="paint0_linear_167_3" x1="35" y1="23" x2="25.9942" y2="22.6468" gradientUnits="userSpaceOnUse">
<stop stop-color="#277BC0"/>
<stop offset="0.951042" stop-color="#FFB200"/>
<stop offset="0.951142" stop-color="#277BC0" stop-opacity="0"/>
</linearGradient>
<linearGradient id="paint1_linear_167_3" x1="35.5" y1="0" x2="35.5" y2="45" gradientUnits="userSpaceOnUse">
<stop stop-color="#FFB200"/>
<stop offset="0.294792" stop-color="#FEB201"/>
<stop offset="0.727083" stop-color="#2A7CBE"/>
<stop offset="1" stop-color="#277BC0"/>
</linearGradient>
</defs>
</svg>
