<svg width="71" height="91" viewBox="0 0 71 91" fill="none" xmlns="http://www.w3.org/2000/svg">
<path d="M70.4844 29.9121C70.3431 31.5671 70 33.1211 69.4551 34.5742C68.9102 36.0273 68.2139 37.3896 67.3662 38.6611C66.5387 39.9124 65.6003 41.083 64.5508 42.1729C63.5013 43.2425 62.4014 44.2314 61.251 45.1396C63.3298 47.7835 65.1159 50.5283 66.6094 53.374C68.1029 56.1995 69.3945 59.1462 70.4844 62.2139L60.0703 64.6055C59.7878 61.8607 59.263 59.2067 58.4961 56.6436C57.7292 54.0602 56.6494 51.5778 55.2568 49.1963C54.5303 49.5999 53.8138 49.9632 53.1074 50.2861C52.4212 50.5889 51.7855 50.8815 51.2002 51.1641V53.8887C51.2002 55.5234 51.2204 57.1279 51.2607 58.7021C51.3213 60.2764 51.3516 61.8809 51.3516 63.5156L42.6025 64.6055C42.6025 57.1178 42.4915 49.6201 42.2695 42.1123C42.0475 34.6045 41.6842 27.0866 41.1797 19.5586H52.4414C52.1387 23.9987 51.8864 28.4287 51.6846 32.8486C51.4827 37.2484 51.3516 41.6784 51.291 46.1387C52.3001 45.3314 53.1982 44.4736 53.9854 43.5654C54.7725 42.6572 55.4688 41.749 56.0742 40.8408C56.6797 39.9326 57.1943 39.0345 57.6182 38.1465C58.042 37.2383 58.4053 36.3805 58.708 35.5732C59.3942 33.6761 59.8483 31.7891 60.0703 29.9121H70.4844Z" fill="url(#paint0_linear_162_12)"/>
<path d="M34.8125 47.5C34.8125 50.1458 34.6562 52.8333 34.3438 55.5625C34.0312 58.2917 33.5521 61.0312 32.9062 63.7812H22.0312C22.2812 60.8438 22.4792 57.9271 22.625 55.0312C22.7708 52.1354 22.8438 49.2188 22.8438 46.2812C22.8438 45.2812 22.8438 44.2917 22.8438 43.3125C22.8438 42.3333 22.8229 41.3646 22.7812 40.4062C21.8438 40.3021 20.9167 40.2396 20 40.2188C19.1042 40.1771 18.1771 40.1562 17.2188 40.1562C16.6771 40.1562 16.125 40.1667 15.5625 40.1875C15.0208 40.2083 14.4583 40.2188 13.875 40.2188C13.8125 41.6979 13.7708 43.0833 13.75 44.375C13.75 45.6458 13.75 46.9271 13.75 48.2188C13.75 49.2812 13.7604 50.3646 13.7812 51.4688C13.8021 52.5521 13.8333 53.7188 13.875 54.9688C13.9375 56.2188 14.0104 57.5729 14.0938 59.0312C14.1771 60.4688 14.2812 62.0521 14.4062 63.7812H3.90625C3.90625 61.2812 3.89583 59.0729 3.875 57.1562C3.85417 55.2396 3.82292 53.4792 3.78125 51.875C3.73958 50.25 3.67708 48.7083 3.59375 47.25C3.53125 45.7708 3.44792 44.2292 3.34375 42.625C3.23958 41 3.125 39.2396 3 37.3438C2.875 35.4271 2.72917 33.2292 2.5625 30.75L14.4062 30.0312L14.1562 34.6562C15.1979 34.1562 16.2188 33.7708 17.2188 33.5C18.2188 33.2292 19.1146 33.0312 19.9062 32.9062C20.8229 32.7604 21.6979 32.6771 22.5312 32.6562C24.1354 32.6562 25.5625 32.8854 26.8125 33.3438C28.0625 33.7812 29.1562 34.3854 30.0938 35.1562C31.3021 34.1146 32.5729 33.3229 33.9062 32.7812C35.2604 32.2188 36.5104 31.8021 37.6562 31.5312C38.9896 31.2188 40.3021 31.0417 41.5938 31C43.1354 31 44.5 31.2083 45.6875 31.625C46.8958 32.0417 47.9583 32.625 48.875 33.375C49.7917 34.1042 50.5625 34.9792 51.1875 36C51.8333 37 52.3542 38.0833 52.75 39.25C53.1458 40.3958 53.4271 41.6042 53.5938 42.875C53.7812 44.1458 53.875 45.4167 53.875 46.6875C53.875 49.4583 53.7188 52.2708 53.4062 55.125C53.1146 57.9792 52.6354 60.8646 51.9688 63.7812H41.0938C41.3438 60.6771 41.5417 57.6042 41.6875 54.5625C41.8333 51.5 41.9062 48.4271 41.9062 45.3438C41.9062 44.3021 41.9062 43.2708 41.9062 42.25C41.9062 41.2083 41.8854 40.1667 41.8438 39.125C40.9062 39.0208 39.9792 38.9583 39.0625 38.9375C38.1458 38.8958 37.1979 38.875 36.2188 38.875C35.6771 38.875 35.1458 38.8854 34.625 38.9062C34.1042 38.9271 33.5729 38.9375 33.0312 38.9375C33.6771 40.2292 34.1354 41.6146 34.4062 43.0938C34.6771 44.5521 34.8125 46.0208 34.8125 47.5Z" fill="url(#paint1_linear_162_12)"/>
<defs>
<linearGradient id="paint0_linear_162_12" x1="74.5" y1="47" x2="48.6516" y2="47.9671" gradientUnits="userSpaceOnUse">
<stop stop-color="#277BC0"/>
<stop offset="0.8125" stop-color="#FFB200"/>
<stop offset="0.8126" stop-color="#277BC0" stop-opacity="0"/>
</linearGradient>
<linearGradient id="paint1_linear_162_12" x1="35.5" y1="0" x2="35.5" y2="91" gradientUnits="userSpaceOnUse">
<stop stop-color="#FFB200"/>
<stop offset="0.294792" stop-color="#FEB201"/>
<stop offset="0.727083" stop-color="#2A7CBE"/>
<stop offset="1" stop-color="#277BC0"/>
</linearGradient>
</defs>
</svg>
