<svg width="88" height="113" viewBox="0 0 88 113" fill="none" xmlns="http://www.w3.org/2000/svg">
<path d="M87.6094 37.1152C87.4316 39.1973 87 41.1523 86.3145 42.9805C85.6289 44.8086 84.7529 46.5225 83.6865 48.1221C82.6455 49.6963 81.4648 51.1689 80.1445 52.54C78.8242 53.8857 77.4404 55.1299 75.9932 56.2725C78.6084 59.5986 80.8555 63.0518 82.7344 66.6318C84.6133 70.1865 86.2383 73.8936 87.6094 77.7529L74.5078 80.7617C74.1523 77.3086 73.4922 73.9697 72.5273 70.7451C71.5625 67.4951 70.2041 64.3721 68.4521 61.376C67.5381 61.8838 66.6367 62.3408 65.748 62.7471C64.8848 63.1279 64.085 63.4961 63.3486 63.8516V67.2793C63.3486 69.3359 63.374 71.3545 63.4248 73.335C63.501 75.3154 63.5391 77.334 63.5391 79.3906L52.5322 80.7617C52.5322 71.3418 52.3926 61.9092 52.1133 52.4639C51.834 43.0186 51.377 33.5605 50.7422 24.0898H64.9102C64.5293 29.6758 64.2119 35.249 63.958 40.8096C63.7041 46.3447 63.5391 51.918 63.4629 57.5293C64.7324 56.5137 65.8623 55.4346 66.8525 54.292C67.8428 53.1494 68.7188 52.0068 69.4805 50.8643C70.2422 49.7217 70.8896 48.5918 71.4229 47.4746C71.9561 46.332 72.4131 45.2529 72.7939 44.2373C73.6572 41.8506 74.2285 39.4766 74.5078 37.1152H87.6094Z" fill="url(#paint0_linear_162_9)"/>
<path d="M43.5156 59.625C43.5156 62.9323 43.3203 66.2917 42.9297 69.7031C42.5391 73.1146 41.9401 76.5391 41.1328 79.9766H27.5391C27.8516 76.3047 28.099 72.6589 28.2812 69.0391C28.4635 65.4193 28.5547 61.7734 28.5547 58.1016C28.5547 56.8516 28.5547 55.6146 28.5547 54.3906C28.5547 53.1667 28.5286 51.9557 28.4766 50.7578C27.3047 50.6276 26.1458 50.5495 25 50.5234C23.8802 50.4714 22.7214 50.4453 21.5234 50.4453C20.8464 50.4453 20.1562 50.4583 19.4531 50.4844C18.776 50.5104 18.0729 50.5234 17.3438 50.5234C17.2656 52.3724 17.2135 54.1042 17.1875 55.7188C17.1875 57.3073 17.1875 58.9089 17.1875 60.5234C17.1875 61.8516 17.2005 63.2057 17.2266 64.5859C17.2526 65.9401 17.2917 67.3984 17.3438 68.9609C17.4219 70.5234 17.513 72.2161 17.6172 74.0391C17.7214 75.8359 17.8516 77.8151 18.0078 79.9766H4.88281C4.88281 76.8516 4.86979 74.0911 4.84375 71.6953C4.81771 69.2995 4.77865 67.099 4.72656 65.0938C4.67448 63.0625 4.59635 61.1354 4.49219 59.3125C4.41406 57.4635 4.3099 55.5365 4.17969 53.5312C4.04948 51.5 3.90625 49.2995 3.75 46.9297C3.59375 44.5339 3.41146 41.7865 3.20312 38.6875L18.0078 37.7891L17.6953 43.5703C18.9974 42.9453 20.2734 42.4635 21.5234 42.125C22.7734 41.7865 23.8932 41.5391 24.8828 41.3828C26.0286 41.2005 27.1224 41.0964 28.1641 41.0703C30.1693 41.0703 31.9531 41.3568 33.5156 41.9297C35.0781 42.4766 36.4453 43.2318 37.6172 44.1953C39.1276 42.8932 40.7161 41.9036 42.3828 41.2266C44.0755 40.5234 45.638 40.0026 47.0703 39.6641C48.737 39.2734 50.3776 39.0521 51.9922 39C53.9193 39 55.625 39.2604 57.1094 39.7812C58.6198 40.3021 59.9479 41.0312 61.0938 41.9688C62.2396 42.8802 63.2031 43.974 63.9844 45.25C64.7917 46.5 65.4427 47.8542 65.9375 49.3125C66.4323 50.7448 66.7839 52.2552 66.9922 53.8438C67.2266 55.4323 67.3438 57.0208 67.3438 58.6094C67.3438 62.0729 67.1484 65.5885 66.7578 69.1562C66.3932 72.724 65.7943 76.3307 64.9609 79.9766H51.3672C51.6797 76.0964 51.9271 72.2552 52.1094 68.4531C52.2917 64.625 52.3828 60.7839 52.3828 56.9297C52.3828 55.6276 52.3828 54.3385 52.3828 53.0625C52.3828 51.7604 52.3568 50.4583 52.3047 49.1562C51.1328 49.026 49.974 48.9479 48.8281 48.9219C47.6823 48.8698 46.4974 48.8438 45.2734 48.8438C44.5964 48.8438 43.9323 48.8568 43.2812 48.8828C42.6302 48.9089 41.9661 48.9219 41.2891 48.9219C42.0964 50.5365 42.6693 52.2682 43.0078 54.1172C43.3464 55.9401 43.5156 57.776 43.5156 59.625Z" fill="url(#paint1_linear_162_9)"/>
<defs>
<linearGradient id="paint0_linear_162_9" x1="83.5" y1="58" x2="57.6386" y2="58.7741" gradientUnits="userSpaceOnUse">
<stop stop-color="#277BC0"/>
<stop offset="0.651042" stop-color="#FFB200"/>
<stop offset="0.651142" stop-color="#277BC0" stop-opacity="0"/>
</linearGradient>
<linearGradient id="paint1_linear_162_9" x1="35.5" y1="0" x2="35.5" y2="113" gradientUnits="userSpaceOnUse">
<stop stop-color="#FFB200"/>
<stop offset="0.294792" stop-color="#FEB201"/>
<stop offset="0.727083" stop-color="#2A7CBE"/>
<stop offset="1" stop-color="#277BC0"/>
</linearGradient>
</defs>
</svg>
