<svg width="71" height="68" viewBox="0 0 71 68" fill="none" xmlns="http://www.w3.org/2000/svg">
<path d="M53.3594 22.709C53.2546 23.9368 53 25.0898 52.5957 26.168C52.1914 27.2461 51.6748 28.2568 51.0459 29.2002C50.432 30.1286 49.7357 30.9971 48.957 31.8057C48.1784 32.5993 47.3623 33.333 46.5088 34.0068C48.0511 35.9684 49.3763 38.0049 50.4844 40.1162C51.5924 42.2126 52.5508 44.3988 53.3594 46.6748L45.6328 48.4492C45.4232 46.4128 45.0339 44.4437 44.4648 42.542C43.8958 40.6253 43.0947 38.7835 42.0615 37.0166C41.5225 37.3161 40.9909 37.5856 40.4668 37.8252C39.9577 38.0498 39.486 38.2669 39.0518 38.4766V40.498C39.0518 41.7109 39.0667 42.9014 39.0967 44.0693C39.1416 45.2373 39.1641 46.4277 39.1641 47.6406L32.6729 48.4492C32.6729 42.8939 32.5905 37.3311 32.4258 31.7607C32.2611 26.1904 31.9915 20.6126 31.6172 15.0273H39.9727C39.748 18.3216 39.5609 21.6084 39.4111 24.8877C39.2614 28.152 39.1641 31.4388 39.1191 34.748C39.8678 34.1491 40.5342 33.5127 41.1182 32.8389C41.7021 32.165 42.2188 31.4912 42.668 30.8174C43.1172 30.1436 43.499 29.4772 43.8135 28.8184C44.1279 28.1445 44.3975 27.5081 44.6221 26.9092C45.1312 25.5016 45.4681 24.1016 45.6328 22.709H53.3594Z" fill="url(#paint0_linear_163_15)"/>
<path d="M26.1094 35.375C26.1094 37.3594 25.9922 39.375 25.7578 41.4219C25.5234 43.4688 25.1641 45.5234 24.6797 47.5859H16.5234C16.7109 45.3828 16.8594 43.1953 16.9688 41.0234C17.0781 38.8516 17.1328 36.6641 17.1328 34.4609C17.1328 33.7109 17.1328 32.9688 17.1328 32.2344C17.1328 31.5 17.1172 30.7734 17.0859 30.0547C16.3828 29.9766 15.6875 29.9297 15 29.9141C14.3281 29.8828 13.6328 29.8672 12.9141 29.8672C12.5078 29.8672 12.0938 29.875 11.6719 29.8906C11.2656 29.9062 10.8438 29.9141 10.4062 29.9141C10.3594 31.0234 10.3281 32.0625 10.3125 33.0312C10.3125 33.9844 10.3125 34.9453 10.3125 35.9141C10.3125 36.7109 10.3203 37.5234 10.3359 38.3516C10.3516 39.1641 10.375 40.0391 10.4062 40.9766C10.4531 41.9141 10.5078 42.9297 10.5703 44.0234C10.6328 45.1016 10.7109 46.2891 10.8047 47.5859H2.92969C2.92969 45.7109 2.92188 44.0547 2.90625 42.6172C2.89062 41.1797 2.86719 39.8594 2.83594 38.6562C2.80469 37.4375 2.75781 36.2812 2.69531 35.1875C2.64844 34.0781 2.58594 32.9219 2.50781 31.7188C2.42969 30.5 2.34375 29.1797 2.25 27.7578C2.15625 26.3203 2.04688 24.6719 1.92188 22.8125L10.8047 22.2734L10.6172 25.7422C11.3984 25.3672 12.1641 25.0781 12.9141 24.875C13.6641 24.6719 14.3359 24.5234 14.9297 24.4297C15.6172 24.3203 16.2734 24.2578 16.8984 24.2422C18.1016 24.2422 19.1719 24.4141 20.1094 24.7578C21.0469 25.0859 21.8672 25.5391 22.5703 26.1172C23.4766 25.3359 24.4297 24.7422 25.4297 24.3359C26.4453 23.9141 27.3828 23.6016 28.2422 23.3984C29.2422 23.1641 30.2266 23.0312 31.1953 23C32.3516 23 33.375 23.1562 34.2656 23.4688C35.1719 23.7812 35.9688 24.2188 36.6562 24.7812C37.3438 25.3281 37.9219 25.9844 38.3906 26.75C38.875 27.5 39.2656 28.3125 39.5625 29.1875C39.8594 30.0469 40.0703 30.9531 40.1953 31.9062C40.3359 32.8594 40.4062 33.8125 40.4062 34.7656C40.4062 36.8438 40.2891 38.9531 40.0547 41.0938C39.8359 43.2344 39.4766 45.3984 38.9766 47.5859H30.8203C31.0078 45.2578 31.1562 42.9531 31.2656 40.6719C31.375 38.375 31.4297 36.0703 31.4297 33.7578C31.4297 32.9766 31.4297 32.2031 31.4297 31.4375C31.4297 30.6562 31.4141 29.875 31.3828 29.0938C30.6797 29.0156 29.9844 28.9688 29.2969 28.9531C28.6094 28.9219 27.8984 28.9062 27.1641 28.9062C26.7578 28.9062 26.3594 28.9141 25.9688 28.9297C25.5781 28.9453 25.1797 28.9531 24.7734 28.9531C25.2578 29.9219 25.6016 30.9609 25.8047 32.0703C26.0078 33.1641 26.1094 34.2656 26.1094 35.375Z" fill="url(#paint1_linear_163_15)"/>
<defs>
<linearGradient id="paint0_linear_163_15" x1="53.5" y1="36" x2="38.9866" y2="35.7352" gradientUnits="userSpaceOnUse">
<stop stop-color="#277BC0"/>
<stop offset="0.951042" stop-color="#FFB200"/>
<stop offset="0.951142" stop-color="#277BC0" stop-opacity="0"/>
</linearGradient>
<linearGradient id="paint1_linear_163_15" x1="35.5" y1="0" x2="35.5" y2="68" gradientUnits="userSpaceOnUse">
<stop stop-color="#FFB200"/>
<stop offset="0.294792" stop-color="#FEB201"/>
<stop offset="0.727083" stop-color="#2A7CBE"/>
<stop offset="1" stop-color="#277BC0"/>
</linearGradient>
</defs>
</svg>
